<?xml version="1.0" standalone="no"?>
<!DOCTYPE svg PUBLIC "-//W3C//DTD SVG 20010904//EN"
 "http://www.w3.org/TR/2001/REC-SVG-20010904/DTD/svg10.dtd">
<svg version="1.0" xmlns="http://www.w3.org/2000/svg"
 width="700.000000pt" height="700.000000pt" viewBox="0 0 700.000000 700.000000"
 preserveAspectRatio="xMidYMid meet">
<metadata>
Created by potrace 1.14, written by Peter Selinger 2001-2017
</metadata>
<g transform="translate(0.000000,700.000000) scale(0.100000,-0.100000)"
fill="#000000" stroke="none">
<path d="M3398 6415 c-2 -2 -30 -5 -63 -9 -71 -7 -75 -8 -188 -35 -396 -94
-748 -371 -939 -739 -22 -42 -44 -81 -48 -85 -4 -5 -65 -10 -136 -12 -187 -6
-259 -18 -421 -71 -222 -72 -403 -184 -575 -355 -151 -150 -246 -295 -339
-514 -7 -17 -38 -121 -45 -150 -72 -311 -63 -549 32 -834 71 -213 182 -390
354 -561 123 -123 215 -192 346 -259 l82 -42 0 -961 c1 -899 2 -964 19 -1011
25 -71 94 -142 165 -171 l56 -22 1809 0 1808 1 50 23 c83 38 142 107 165 191
8 29 11 324 11 995 l1 953 81 43 c202 106 370 252 505 438 84 116 198 351 218
446 2 10 8 33 13 50 51 160 57 439 15 646 -48 233 -182 508 -319 656 -5 6 -28
31 -50 55 -183 198 -459 357 -730 419 -122 27 -169 33 -308 35 l-128 2 -30 63
c-116 245 -333 477 -584 624 -121 70 -340 151 -465 170 -14 3 -45 8 -69 11
-41 7 -288 15 -293 10z m163 -586 c191 -7 393 -97 544 -244 126 -122 192 -234
242 -409 30 -105 61 -157 121 -203 70 -54 163 -70 257 -46 464 118 935 -157
1066 -623 32 -113 32 -333 1 -449 -27 -99 -88 -221 -154 -309 -98 -131 -279
-255 -442 -305 -109 -34 -170 -81 -208 -164 -28 -58 -30 -94 -32 -429 l-1
-313 -1457 -3 -1456 -3 0 321 c0 344 -3 383 -35 439 -46 81 -108 126 -211 156
-187 53 -384 207 -489 382 -52 87 -101 216 -116 309 -15 92 -6 277 19 368 35
131 114 276 204 374 106 115 319 235 461 258 102 16 136 19 185 18 61 -1 171
-13 181 -20 11 -7 82 -17 119 -18 92 -1 187 50 242 129 15 22 37 76 48 120 85
322 318 558 632 640 55 15 197 34 209 29 3 -2 34 -4 70 -5z m1397 -4371 l-1
-293 -1451 2 c-798 0 -1454 2 -1458 2 -3 1 -6 131 -6 290 l0 290 1458 1 1458
1 0 -293z"/>
</g>
</svg>
